<svg width="16" height="16" viewBox="0 0 16 16" fill="none" xmlns="http://www.w3.org/2000/svg">
<path d="M10.5802 10.1667L8.3335 8.83332V5.81332C8.3335 5.54666 8.12017 5.33332 7.8535 5.33332H7.8135C7.54683 5.33332 7.3335 5.54666 7.3335 5.81332V8.95999C7.3335 9.19332 7.4535 9.41332 7.66017 9.53332L10.0935 10.9933C10.3202 11.1267 10.6135 11.06 10.7468 10.8333C10.8868 10.6 10.8135 10.3 10.5802 10.1667ZM14.1202 3.33999L12.0668 1.63333C11.7868 1.39999 11.3668 1.43333 11.1268 1.71999C10.8935 1.99999 10.9335 2.41999 11.2135 2.65999L13.2602 4.36666C13.5402 4.59999 13.9602 4.56666 14.2002 4.27999C14.4402 3.99999 14.4002 3.57999 14.1202 3.33999ZM2.7335 4.36666L4.78017 2.65999C5.06683 2.41999 5.10683 1.99999 4.86683 1.71999C4.6335 1.43333 4.2135 1.39999 3.9335 1.63333L1.88017 3.33999C1.60017 3.57999 1.56017 3.99999 1.80017 4.27999C2.0335 4.56666 2.4535 4.59999 2.7335 4.36666ZM8.00017 2.66666C4.68683 2.66666 2.00017 5.35332 2.00017 8.66666C2.00017 11.98 4.68683 14.6667 8.00017 14.6667C11.3135 14.6667 14.0002 11.98 14.0002 8.66666C14.0002 5.35332 11.3135 2.66666 8.00017 2.66666ZM8.00017 13.3333C5.42683 13.3333 3.3335 11.24 3.3335 8.66666C3.3335 6.09332 5.42683 3.99999 8.00017 3.99999C10.5735 3.99999 12.6668 6.09332 12.6668 8.66666C12.6668 11.24 10.5735 13.3333 8.00017 13.3333Z" fill="#0090FF"/>
</svg>
